<svg width="24px" height="24px" viewBox="0 0 24 24" className="gfxUHP gfxUHo" data-icon="green">
                <mask id="mask0_1121_278" width="24" height="24" x="0" y="0" maskUnits="userSpaceOnUse" style={{ maskType: 'alpha' }}>
                  <path fill="#D9D9D9" d="M0 0h24v24H0z"></path>
                </mask>
                <g fill="none" mask="url(#mask0_1121_278)">
                  <path fill="#006C85" d="M11 21v-7.975a7.942 7.942 0 0 1-3.075-.613A7.956 7.956 0 0 1 3.6 8.075C3.2 7.092 3 6.067 3 5V3h2a7.88 7.88 0 0 1 3.05.612c.983.409 1.85.988 2.6 1.738a7.62 7.62 0 0 1 1.287 1.7 8.48 8.48 0 0 1 .788 1.975c.083-.117.175-.23.275-.338.1-.108.208-.22.325-.337a7.957 7.957 0 0 1 2.6-1.737A7.941 7.941 0 0 1 19 6h2v2a7.942 7.942 0 0 1-.613 3.075 7.956 7.956 0 0 1-1.737 2.6 7.827 7.827 0 0 1-2.587 1.725c-.975.4-1.996.6-3.063.6v5h-2Zm0-10c0-.8-.154-1.563-.463-2.287a6.087 6.087 0 0 0-1.312-1.938 6.088 6.088 0 0 0-1.938-1.313A5.785 5.785 0 0 0 5 5c0 .8.15 1.567.45 2.3.3.733.733 1.383 1.3 1.95.567.567 1.217 1 1.95 1.3.733.3 1.5.45 2.3.45Zm2 3a5.924 5.924 0 0 0 4.225-1.75 6.05 6.05 0 0 0 1.313-1.95A5.88 5.88 0 0 0 19 8c-.8 0-1.567.154-2.3.463a6.05 6.05 0 0 0-1.95 1.312A5.918 5.918 0 0 0 13 14Z"></path>
                </g>
              </svg>