<svg fill="none" xmlns="http://www.w3.org/2000/svg" viewBox="0 0 58 77"><g clip-path="url(#clip0_90_2122)"><path d="M58.263 41.654V0H1.016v41.675c-.005.609-.041 15.252 10.386 23.933l-.023-.018c.328.29 8.127 7.128 17.817 11.303l.191.081h.522l.198-.095c9.33-4.326 17.835-11.193 17.922-11.261 10.44-8.693 10.246-23.343 10.233-23.964Z" fill="#8B0029"/><path d="M3.121 2.123v.406H56.29v-.406H3.12Zm0 11.383v.407H56.29v-.407H3.12ZM3 20.301v.406h53.17v-.406H3Zm10.03-8.535c-.285-.217-.555-.42-1.137-1.03l-2.83-3.134c.094-.117 2.857-3.494 2.857-3.496l.163-.17H10.69L7.586 7.773V3.935H6.181v8.11h1.405V7.89l3.241 3.608c.267.359.752.545 1.428.545h1.159l-.277-.197c.003.001-.108-.081-.108-.081Zm6.648-8.071c-1.235-.007-2.299.41-3.16 1.236-.86.826-1.299 1.841-1.299 3.016 0 1.237.432 2.277 1.286 3.088.83.796 1.857 1.199 3.057 1.199 1.199 0 2.24-.417 3.093-1.243.85-.824 1.286-1.869 1.286-3.105a4.024 4.024 0 0 0-1.193-2.916c-.819-.838-1.855-1.267-3.07-1.275Zm-.058 7.48c-.844 0-1.56-.353-2.113-1.052-.521-.647-.787-1.416-.787-2.285 0-.896.265-1.645.788-2.22.522-.573 1.224-.863 2.088-.863.848 0 1.551.35 2.095 1.04.497.638.75 1.425.75 2.333 0 .882-.256 1.618-.761 2.185-.521.57-1.217.863-2.06.863Zm19.674-3.008 2.607.001V7.106h-2.607v-2.1c.569-.013 3.19 0 3.22 0h.088v-1.09l-4.724-.003v.09l.006 8.042h5.21l.012-1.143-3.812.004V8.167Zm11.341-4.255h-1.303l-3.315 8.132h1.255s1.074-2.87 1.115-2.983h2.93c.04.112 1.136 2.983 1.136 2.983h1.557l-3.316-8.132h-.06Zm.228 4.073H48.78c.08-.21.912-2.316 1.053-2.67.136.355.951 2.462 1.03 2.67Zm-17.875 2.222-1.689-2.11c.28-.102.768-.32 1.14-.71.408-.424.614-.91.614-1.44 0-.594-.225-1.085-.673-1.456-.465-.383-1.107-.577-1.915-.577h-2.699v8.13h1.449v-.125c-.038-.272-.04-.691-.04-1.657V4.927c1.326-.013 1.853.154 2.06.3.276.198.413.482.41.872-.005.898-.663 1.434-2.01 1.637l-.154.022 2.85 3.648c.338.425.831.638 1.47.638h1.16l-.239-.164c-.578-.396-1.213-1.005-1.734-1.673Zm-5.11 7.13h1.245v-.506h-1.245V15.83c.271-.007 1.52 0 1.535 0h.04v-.52l-2.248-.001v.043l.003 3.833h2.474l.015-.546-1.818.003v-1.305ZM9.366 15.313h-.467l.004 2.388c0 .713-.165 1.1-1.042 1.1H7.76c-.582 0-.876-.372-.876-1.1l.003-2.388h-.673l-.002 2.39c0 .29.011.488.035.609.041.216.13.406.271.558.253.275.615.417 1.076.417h.436c.459 0 .824-.142 1.075-.417a1.13 1.13 0 0 0 .27-.56 3.46 3.46 0 0 0 .034-.607v-2.39h-.042Zm5.841 0v.042l-.006 2.804-2.242-2.846h-.582v3.88h.506l.002-2.902c.143.185 2.274 2.9 2.274 2.9l.56.002v-3.88h-.512Zm3.37 0v3.88h.667l.002-3.88h-.669Zm24.268 3.88h.668v-3.88h-.672v3.029l.004.851Zm-18.429-3.88s-1.036 2.834-1.11 3.041l-1.091-3.041h-.763l1.446 3.883h.608l1.498-3.883h-.588Zm15.146 1.914a88.77 88.77 0 0 0-.522-.258l-.445-.218c-.327-.171-.491-.357-.491-.554 0-.165.075-.286.228-.37.116-.069.285-.101.492-.094.34.01.686.11.867.251l.068.054v-.688l-.028-.01a2.952 2.952 0 0 0-.874-.128c-.4 0-.74.079-1.008.236-.321.183-.483.456-.483.809 0 .358.18.658.536.887.002.003.19.095.19.095l.775.38c.326.172.49.371.49.596 0 .17-.085.305-.267.411a.952.952 0 0 1-.513.145 2.341 2.341 0 0 1-1.165-.312l-.075-.046.1.679.025.008c.31.116.667.176 1.047.176.472 0 .88-.123 1.173-.355.277-.223.414-.52.414-.88.001-.316-.179-.588-.534-.814Zm6.493-1.929v.042l-.002.466s1.002 0 1.083.004v3.374h.667l.002-3.374h1.106v-.512h-2.856Zm7.229.005s-.99 1.528-1.056 1.633c-.069-.105-1.042-1.638-1.042-1.638h-.772s1.382 2.174 1.397 2.195l-.005 1.69h.672l.002-1.69 1.455-2.19h-.65ZM34.722 18.31l-.806-1.008a1.44 1.44 0 0 0 .545-.336.979.979 0 0 0 .292-.687.86.86 0 0 0-.322-.695c-.222-.183-.529-.273-.91-.273h-1.286v3.874h.688v-.061c-.017-.13-.017-.318-.017-.789v-2.544c.629-.005.881.074.98.145.133.093.198.23.196.414-.002.429-.316.685-.958.781l-.072.01 1.357 1.738c.16.201.394.305.697.305h.558l-.117-.08a3.905 3.905 0 0 1-.825-.795ZM56.27 41.675v.09c0 1.229-.22 14.584-9.506 22.313-.076.06-8.175 6.598-17.133 10.828-9.232-4.063-16.858-10.74-16.935-10.808l-.022-.02c-9.557-7.955-9.667-21.87-9.667-22.38V22.87h53.262v18.805Z" fill="#D6CABC"/><path d="M25.156 68.238h.732c.101 0 .064-.092.064-.092-.298-1.314-.143-2.345-.086-2.651 0 0 .029-.09-.076-.09h-.722c-.099 0-.062.075-.062.075.245 1.01.15 2.29.087 2.66 0 0-.046.098.063.098Zm2.712-2.916c-1.165.113-1.093 1.478-1.093 1.478.071 1.235 1.352 1.469 1.352 1.469-.35.947-1.285 1.23-1.285 1.23-.22.084-.06.147-.06.147.28.093.687-.07.687-.07 1.71-.767 1.755-2.56 1.755-2.56.036-1.828-1.356-1.694-1.356-1.694Zm.416 2.513c-.557.017-.691-.851-.691-.851-.144-.952.227-1.007.227-1.007.39-.123.562.688.562.688.19.934-.098 1.17-.098 1.17Zm3.898-1.407s-.153-1.132-1.216-1.12c0 0-1.05-.028-1.098 1.429 0 0-.04 1.537 1.287 1.47 0 0 1.3-.08 1.027-1.78Zm-1.01 1.292c-.502.184-.557-.842-.557-.842-.054-.98.346-1.078.346-1.078.404-.101.517.62.517.62.182 1.116-.305 1.3-.305 1.3Zm1.323.88c1.122.222 1.42-.573 1.42-.573.357-1.128-1.052-1.183-1.052-1.183l.227-1.451s1.414.067 1.792-.121c0 0 .088-.06.039.153 0 0-.078.482-.54.518l-.694.058-.067.41s1.203-.027 1.18 1.272c0 0-.044 1.004-1.218 1.25 0 0-.55.121-1.184-.137 0 0-.097-.046-.045-.123 0 0 .045-.093.142-.073Zm-4.14-27.196c.09-.107.204-.031.3 0 .09.026.093.203.145.293.028.064.204.242.22.296.143.653 0 1.51-.293 2.005-.083.153-.218.233-.314.238-.123.01-.163-.17-.206-.237-.189-.263-.047-.889 0-1.181.049-.376-.245-.982-.058-1.256 0 0 .203-.157.206-.157Zm-8.885.69c.16-.048.388.031.484 0l.214-.087c.246-.159.491-.114.742-.088.125.014.495.175.618.18.198.022 1.132.123 2.126.266-.009-.004.53-.07.394-.22.085.097-.015-.081-.218-.152l-.07-.074c.008-.008-.172-.15.149-.257-.122.036.21-.049.275-.119.129-.138-.06-.286-.06-.286-.47-.159-.998.142-1.704.068-.347-.028-.84-.227-1.33-.147-.534.095-1.318.396-1.692.687 0 0-.178.31.073.229Zm5.946-3.849c.48-.028.502.47.513.418-.055.355-.927.387-1.134.664-.61.794-.357 1.553-1.797 1.634 0 0-.29-.067-.178-.186.09-.096.44-.188.568-.267.187-.107.171-.407.294-.592.026-.046.188-.103.229-.142.403-.547.45-1.101 1.163-1.426.029-.017.289-.092.342-.103Z" fill="#8B0029"/><path d="M30.03 36.108c.165-.092.327 0 .435.098.062.044.59 1.308.614 1.434.068.46.12 1.519-.006 1.859-.177.473-.615.839-.52 1.68.051.494.27.879.478 1.308.024.072.241.492.252.58.081.452-.166 1.035-.204 1.401-.11.912.255 1.74.108 2.61-.061.375-.182.564-.387.795l-.164.14c-.046.09-.127.12-.21.184l-.1.102c-.155.036-.17.127-.233.134-.39.087-.47-.141-.445-.088-.396-1.115.267-2.418-.072-3.495-.078-.247-.37-.494-.409-.758-.135-.964.768-1.473.755-2.123 0-.462-.608-1.064-.746-1.52-.172-.533-.286-1.557-.052-2.224.055-.163.265-.436.322-.652.111-.416.282-.759.342-1.036a1.38 1.38 0 0 1 .118-.287.752.752 0 0 1 .124-.142Zm11.516-2.302c.652-.077.944.18.64.736l-.128.121c-.053.02-.226.246-.261.278-.316.232-.613.376-.853.67-.083.098-.15.35-.252.436-.163.117-.787.392-.945.42-.79.127-1.863-.66-1.98-1.116-.103-.39 0-.77.169-.859.266-.135.968-.065 1.207-.09.609-.044.992-.011 1.457-.172.283-.092.606-.386.946-.424Zm-3.362-.264s.37.155.702.075c.234-.059.668-.258.887-.297.133-.03.32.036.448 0 .36-.11 1.024-.814.23-.89-.29-.027-1.148.298-1.417.372-.268.069-.435.113-.658.23-.06.035-.367.287-.33.244 0 0-.203.17.138.266Zm-5.677 1.334c-.232-.032-.232-.422-.816-.296-.407.086-.518.684-1.112.668l-.295-.144c-.257-.062-.443.028-.669-.083-1.045-.488.81-2.995 1.41-2.961.031 0 .34.113.378.146.186.162.186.862.361 1.114.133.178.344.164.524.297.189.143.546.636.59.893-.001 0 .096.428-.371.366Zm9.647 20.253c.014-.019.014-.019 0 0Z" fill="#8B0029"/><path d="m42.156 55.126-.005.005c.005 0 .005 0 .005-.005Zm8.318-22.039.001.016c0 .002.005.003.005.005-.004-.01-.004-.015-.005-.02Zm-9.359-.701.02-.042c-.022.044-.026.05-.02.042Zm-4.51 12.655s-.01 0-.014-.003c.014.01.017.01.014.003ZM28.01 35.06c-.405.227-1.287.574-1.472.966-.102.206-.102.385-.185.631-.012.027-.12.07-.155.146-.43 0-.81-.027-1.183.073-.292.083-.712.392-1.037.448-.659.114-1.162-.18-1.78-.075-.274.048-.451.333-.677.447-.193.093-.272.093-.422.23l-.137.158a2.24 2.24 0 0 1-.132.28 1.463 1.463 0 0 0-.22.625c-.033.211-.155.717-.266.927-.053.1-.332.328-.372.421-.021.064-.084.126 0 .221-.096-.105-.077.103.457.132.588.012 1.867-.38 1.867-.38l.614-.331c.119-.092.595-.452.7-.578.448-.554 1.644-2.576 2.575-2.047l.168.12c.222.373-.059 1.44-.225 1.684l-.21.251c-.167.054-.283.484-.308.685-.039.319.053.608.077.786.048.384.088.869-.149 1.343-.051.092-.185.256-.15.513.045.292.458.505.518.746.036.12.142.14 0 .371-.079.125-.419.337-.517.445-.135.136-.017.35.071.434.256.232.469.261.668.528.284.364.267.68.893.741.49.046 1.183.074.89-.596l-.147-.25c-.174-.435-.48-.823-.52-1.301-.058-.608.43-.917.225-1.408-.164-.377-.905-.334-.966-.825-.031-.273.246-.852.299-1.113.057-.356-.038-.582.077-.888.074-.218.398-.464.434-.737.07-.49-.309-.798-.144-1.334.081-.276.513-.245.672-.449.206-.275.092-.654.218-1.04.012-.044.118-.275.14-.315-.013-.017.085-.497.085-.497-.065-.3-.252-.177-.274-.188Zm-4.697 3.915c-.415.095-.453-.79-1.452-.446a2.22 2.22 0 0 0-.356.318c-.116.264-.054.938-.186 1.003 0 0-.388.096-.312-.395.12-.78.27-.925.664-1.254.053-.043.2-.154.277-.17.471-.108 1.34.072 1.496.311.134.199-.15.639-.131.633Z" fill="#8B0029"/><path d="M50.476 33.102c-.07-.362-1.054-.336-1.45-.82-.15-.193-.04-.3 0-.444.112-.423 1.011-.172 1.222-.548.086-.158.114-.623.057-.686-.563-.693-1.753-.363-2.594-.699-.404-.166-.909-.502-1.335-.662-.535-.205-.948-.235-1.482-.447-.122-.053-.36-.227-.487-.28-.595-.238-1.067-.286-1.659-.539-.071-.025-.251-.128-.33-.16-.236-.102-.311-.117-.563-.21-.917-.331-2.085-.625-3.414-.54-.582.03-1.252-.078-2.15.178-.31.078-.744.347-1.035.438-.206.062-.382.097-.568.178-.258.105-.487.256-.841.34-1.02.228-2.38-.022-3.413.15-.895.144-1.413.71-2.15.964-.225.074-.317.05-.539.131-.129.044-.434.125-.537.184-.307.158-.507.205-.854.35-.174.079-.38.238-.548.316-.25.124-.264.158-.47.308l-.168.122s-.362.316-.406.372c-.144.151-.282.359-.407.516-.377.44-.943.99-1.412 1.33-.17.124-.29.098-.44.229-.178.134-.334.279-.503.407-.388.279-.777.463-1.205.699l-.275.183c-.363.238-.348.334-.724.571-.245.168-.352.42-.578.611-.149.116-.32.478-.42.633-.466.682-.64 1.688-.972 2.533-.1.24-.91 1.408-1.11 1.482l-.15.142c-.115.097-.115.125-.22.228-.24.213-.481.335-.666.595-.15.202-.239.44-.377.663-.212.349-.56.734-.737 1.115a3.68 3.68 0 0 0-.174.415c-.019.02-.032.044-.037.044-.091.115-.248.593-.248.593-.164.382-.556.597-1.073 1.336-.605.043-2.691-.486-4.11-1.159.318.354 1.91 1.425 3.774 1.629-.124.182-.134.368-.358.426-.746.184-2.041-.224-3.784-.832.101.243 1.635 1.143 3.9 1.28-.335.394-3.447.296-5.88-.366-.093.254 3.042.951 4.763.928-.295.15-1.069.326-1.567.506-.783-.087-1.879-.224-2.092-.304.05.158.826.37 1.468.518-.617.221-1.532.35-1.888.424.26.065 1.252-.093 2.295-.344.914.175 2.313.357 3.082.322-.193.096-.917.562-1.488.897-1.462.137-3.052.26-3.394.303.192.029 1.473.05 2.84.015-.834.489-1.724.998-2.153 1.194.634-.163 1.766-.596 2.923-1.217 1.147-.04 2.223-.135 2.67-.295-.152.335-1.08 1.935-1.944 2.306.373-.061 1.571-.398 2.296-2.213.257.111.55.176.891.197.191.289.643 1.027 1.5 1.07.174.496 1.763 3.086 3.994 2.077-.644-.35-1.034-.714-1.352-1.748.99-.062 3.61 1.376 4.4 4.482-.62-.208-1.397-.567-1.48-.879-.17.72-.282 1.646 1.308 3.247.03.343.024.753.097 1.14.263.274.566.478.847.717.02.45-.044 1.07 1.14 1.416.403.333 1.696.689 1.885.91.386.124.958.148 1.375.124 0 0 .562-.095.712-.31.28-.015.66-.024 2.379-1.854.36-.43 0-2.797.086-3.371.168-.417.244-.803.473-1.316 0 0 .232-.507.671-.71.03-.015.056-.015.092-.025.99-.223 2.278.703 2.887.963.222.09.339.041.517.15.088.045.21.247.3.299.218.121.428.088.672.217.354.198 1.074 1.24 1.702 1.119.194-.047.348-.492.517-.6.292-.18.702-.162.963-.366.3-.236.176-.5.222-.82 0-.014.138-.164.151-.227.146-.014.468-.001.67-.066.026-.01.111-.109.146-.146.128-.134.035-.276 0-.385-.045-.118-.348-.258-.442-.362-.223-.221-.604-.544-.746-.813-.068-.137.018-.165-.077-.305-.098-.154-.357-.315-.436-.513-.286-.636-.172-2.056-.298-2.253-.118-.191-.263-.166-.38-.345-.245-.39.058-1.65.08-2.149.022-.4-.37-.15-.37-.15-.325.8-.29 1.154-.37 2.3-.012.1-.15.712-.15.82-.005.4.23 1.078.072 1.556-.053.156-.375.457-.815.445-.166 0-.996-.215-1.185-.295-.036-.02-.212-.22-.226-.227-.412-.327-.5-.02-.517.143-.013.172.056.205.09.3.015.095.182.452.165.48-.006.036-.15.426-.921-.028-.581-.353-1.155-1.32-1.186-1.487a1.12 1.12 0 0 1 .106-.781c.29-.262.635.102.925.258.073.039.25.164.34.181.17.029.444-.031.481-.031 1.126-.066 2.292.342 2.492-.414.125-.474-.342-.73-.424-.925-.106-.242-.052-.256-.112-.522-.01-.02-.087-.193-.105-.214-.115-.198-.032-.37-.147-.591-.118-.242-.451-.388-.59-.595-.192-.274-.192-.616-.45-.817-.38-.31-1.899-.763-2.075-1.117-.29-.56.066-1.59-.074-2.294-.076-.413-.21-.637-.462-.892a.407.407 0 0 1-.108-.38c.066-.247.196-.18.271-.733.048-.303-.027-.646 0-.962.002-.052.147-.537.156-.594.067-.827-.04-1.693-.224-2.292-.087-.293-.357-.545-.447-.821-.078-.232.016-.366-.078-.597-.073-.203-.333-.345-.436-.512-.201-.295-.142-.797-.45-.967-.225-.126-.305.05-.292 0-.075.271-.06.536.073.888.054.151.332.371.376.521.057.274-.044.606 0 .891l.143.299c.114.744-.291 1.731-.592 2.146-.212.275-.85.627-.888 1.038-.033.257.072.266.138.373.095.137.401.314.449.444.033.097.071.077.11.173l.038.201c.051.52-.625.637-.297 1.26.093.179.412.179.59.292.337.214.977.815 1.037 1.33.028.226 0 1.42-.067 1.562-.154.33-.988.46-.893 1.114.105.713 1.988.511 2.517.887.25.175.302.556.379.897.042.184-.142.247-.224.289-.199.115-.342.026-.594.08-.611.124-1.59.399-1.846.892-.322.566.057 1.344-.079 1.995-.135.59-.578 1.308-.896 1.786-.197.29-.447.576-.54.984-.219.875-.066 1.908-.13 2.935l-.012.008s.038.533-.32.92c-.408.448-1.82 1.768-2.82 1.768-.372-.012-.524-.134-.93-.427-.255-.022-.842-.164-1.181-.518-.107-.189-1.213-1.31-.518-1.63.654-.3 1.712.355 2.202.672.2 0 1.63.07 3.15-1.92-.072-1.044-.158-2.38-.271-2.623-.159-.511-1.022-1.415-1.207-1.955-.114-.44-.32-1.3-.187-1.897-.057-.666-.478-.813-.653-1.353a1.263 1.263 0 0 0-.135-.284c-.052-.195-.089-.369-.208-.547-.264-.403-.522-.49-.763-.885-.252-.41-.207-.92-.595-1.187-.214-.143-.5-.157-.74-.295-.173-.104-.392-.355-.593-.445l-.536-.24c-.116-.056-.327-.15-.429-.203-.104-.06-.209-.008-.296-.079-.287-.244-.08-.462-.222-.884-.014-.053-.126-.054-.152-.15-.118-.03-.326-.22-.487-.107-.222.163-.285.116-.422.455-.08.224-.23.882-.382 1.043-.132.159-.302.38-.512.527-.197.103-.37.09-.37.09l-.554.082-.276.425s-.302-.04-.462-.04c-.045.102-.41.383-.525.482-.47.275-.759.081-.79-.02-.024-.088-.172-.274.145-.463 1.088-.305 2.42-1.76 2.532-2.075-.138.212-2.388 1.455-2.804 1.622.447-1.061 3.204-2.614 3.372-2.798-.706.107-3.055 1.526-3.463 2.154-.39.632-.85.456-1.283.437-.42-.014-.386.438-.405.716-.005.27-.215.821-.037.92.288.247 1.046-.758 1.288-.218.132.604-1.428.576-1.415 1.064-.075.257 1.44.346 1.718.62-.485.355-1.678.47-2.032.488a2.464 2.464 0 0 1-.535-.01c-.197-.034-.455-.214-.682-.584-.431-.784.297-1.323.309-1.524.017-.21-.082-.098-.095-.428-.013-.328.357-.384.45-.453.106-.073-.027-.165-.002-.483.193-.721 1.369-1.553 1.068-1.784-.274-.145-.844.485-1.065.77-.81 1.044-1.752.716-2.072.73-.714.038-.588-.742-.09-.688.576-.118.533-.913.942-.834.131.582-.513.663-.212.793.412.162.45-.375.58-.601.123-.23.702-.724.637-.849-.168-.059-.594.245-.788.396-.47-1.173.714-2.065.772-2.413.388-.612 2.559-1.396 2.6-2.326l.059-.051s.04-.026.106.082h.005c.014.057.024.117.041.18a.888.888 0 0 1-.003.144l.01-.09c.017.147.01.272.017.242v.14c.02.083.13.127.147.135a.508.508 0 0 0 .277-.174c.017-.019.144-.14.144-.169.208-.152.246-.174.393-.382.372-.542-.346-1.337-.147-2.07.136-.487.59-1.062.59-1.062.123-.277-.071-.275-.071-.275-.286-.051-.486.255-.443.215-.367.345-.476.512-.743.973 0 0-.224.202-.29-.076-.128-.459.393-1.362.556-1.477.305-.209.615-.3.997-.455.193-.08.478-.39.67-.441.093-.032.195-.053.293 0 0 0 .145.105.077.44 0 0-.146.402-.095.55.032.1.018.195.245.195.531.01 1.722-.114 2.07-.301.08-.031.157-.149.228-.217.11-.112.082-.278 0-.294l-.228-.075c.175-.026-1.004-.035-.814-.07-.207.035.279-.549.222-.826-.024-.131-.255-.185-.296-.291-.024-.066-.15-.164 0-.224l.17-.072c.058-.042.12-.111.2-.149.372-.172 1.042-.088 1.335 0 .032.016.51.149.669.595.042.125.075.264.147.373.224.306.877.417 1.26.053.077-.07.17-.244.227-.346.38-.874-.184-1.469-.896-1.711-.287-.103-.752-.13-1.11-.224-.255-.07-.102-.284-.03-.348l.109-.096c.14-.209.581-.394.742-.444.393-.149.779-.296 1.334-.07.082.028.299.198.362.215.422.106.58.137.97-.066.157-.077.134-.097.148-.144.139-.398-.136-.662-.128-.619-.083-.535 1.443.125 1.68-.212.224-.304.079-.887.374-1.109.033-.019.208-.142.222-.147.284-.06.532.058.758.147l.241.115c.481.198.898.305 1.158.7.163.257.133.631.292.894.068.11.227.183.308.296.068.081.2.136.289.186.137.086.19.12.367.177.132.054.322.251.448.303.452.184.994.158 1.483.146.291-.011.463.159.738.076.142-.048.102-.298.013-.405-.177-.224-.311-.17-.604-.337-.115-.07-.26-.299-.372-.367-.339-.22-.83-.252-1.035-.596a.737.737 0 0 1-.072-.216l-.083-.158c-.41-.831-.54-1.324-.147-1.48.246-.093.782-.041 1.045-.149.06-.032.173-.198.22-.223.588-.28 1.695-.606 2.301-.295.183.086 0 .557.068.74.039.08.175.219.33.264 1.273.342 2.545.286 3.479.727.557.263.984.674 1.485 1.109.43.383-.08.816.364.946-.303.04-.56.074-.613-.084a1.052 1.052 0 0 0-.148-.218c-.334-.317-.722-.806-1.183-.963-.24-.088-.345-.012-.598-.078l-.299-.101c-.322-.09-.346-.06-.66-.124-.14-.028-.46-.2-.598-.215-.63-.094-.983.159-1.559 0-.265-.078-.607-.5-.822-.613-.267-.151-.512-.204-.811-.3-.12-.032-.182-.032-.272.014-.165.096-.11.242-.025.364.05.065.09.177.148.212.21.151.628.151.743.37.327.648-.154.874-.223 1.067-.035.117-.125.209 0 .366a.93.93 0 0 0 .3.218c.3.13.538.08.818.226.2.106.41.466.666.523.594.127.736-.311 1.037-.377.429-.095.694.132 1.187 0 .163-.044.255-.237.37-.291.283-.151.565-.172.743-.08 0 0 .19.091-.076.225-.154.085-.284.085-.443.165-.107.058-.202.209-.22.233-.05.103-.085.259-.082.269.046.084.11.13.151.152.517.178 1.044-.156 1.487-.224.328-.052 1.247 0 1.51.202 0 0 .245.05.087.495-.098.267-.52.462-.68.689-.094.128-.197.371-.293.497-.156.202-.183.196-.341.382l-.11.158c-.063.19-.819.83-.961 1.046-.085.127-.125.261-.215.399-.136.193-.235.226-.304.343-.218.313-.643.948-.995 1.109-.157.066-.378-.007-.596-.05-.15-.041-.311-.315-.44-.375-.52-.237-1.096-.17-1.554-.445-.228-.136-.44-.537-.602-.741-.107-.14-.205-.386-.37-.45-.265-.093-.909-.008-1.035.223-.244.466.394 1.664.447 2.156.038.418-.154.608 0 .96.072.179.35.225.442.371.402.633.051 1.527.146 2.372.038.263.194.59.149.969-.064.592-.825 1.102-.517 2 .01.038.155.142.166.152.117.057.303.034.429-.003.246-.086.486-.58.745-.74a.281.281 0 0 1 .157-.072c.027-.052.098-.056.138-.075.11-.082.153-.085.218-.222.105-.24.07-.48.148-.822.078-.282.34-.787.374-1.113.09-.908-.567-2.683-.095-2.976.18-.112.36-.326.67-.373.14-.033.587.104.78.1a.032.032 0 0 1-.005.006c-.242.568.648 2.052.578 2.87-.173 1.995-1.476 3.096-2.6 4.16-.129.127-.02.27.077.37.222.211.763.118 1.044.074.407-.084.589-.268.889-.37.11-.044.244.025.367 0 .307-.084.568-.5.742-.75 0 0 .364-.39.44.126l.008.028c0 .483-.084 1.01 0 1.48.088.557 1.103 2.229 1.63 2.304 1.236.181-.028-1.374-.079-1.485-.201-.47-.397-1.308-.368-1.927.006-.226.194-.683.22-.896.012-.106-.042-.352 0-.437.097-.198.752-.263.893-.523.038-.074-.018-.208 0-.293.03-.179.16-.51.299-.664.088-.11.216-.173.37 0 .127.143.16.474.373.714l.182.2c.219.141.573-.047.48-.025.23-.064.203-.297.3-.378.015-.013.144-.07.144-.07.536-.552-.654-1.05-.668-1.561-.011-.568.127-1.225-.069-1.853-.049-.157-.34-.378-.374-.518-.08-.358.106-.735.149-.962.083-.473-.08-1.203.077-1.412.087-.115.232-.2.516-.15.188.035.314.342.445.446.486.39 1.049.609 1.857.516.1-.002.183-.155.2-.197a.529.529 0 0 0-.053-.468c-.29-.391-1.421-.689-1.482-.884-.044-.146-.223-.34-.026-.438-.108.062.696-.023.986-.084.377-.083.405-.458.666-.59.37-.195.912-.024 1.119-.37.123-.224.026-.542.144-.747.147-.262.587-.314.814-.523.068-.062.037-.291.02-.364ZM20.665 50.446c-.146-.161-.023-.477.246-.61.495-.234.7.037.807.166.48.746 1.104 1.712 1.566 2.097-.427.041-2.022-.446-2.619-1.653Zm4.08 7.5c-.26 0-1.91-1.39-1.662-2.253.49.361 1.588 1.129 1.727 1.113.147.087.264 1.043-.065 1.14Zm1.919.005c-.216-.19-1.815-1.88-1.416-2.665.44.441 1.662 1.566 2.099 1.676.122.32.104 1.206-.683.989Zm.172-6.456c.28.42.665.665.645 1.57-.027.22.044.265.23.248.167-.049.076-1.09.582-1.024.43.064.138.661.35 1.332.08.239.564 1.1.435 2.573-.012.38-.736.877-1.149.586-.339-.205-.339-.458-.533-2.015-.083-.92-1.204-1.235-1.679-1.655-.476-.35-.204-.524-.292-1.161-.274-.924-1.35-1.355-.99-1.97.112-.152.22-.298.562-.168.019.457 1.11.81 1.84 1.684Zm-7.642-2.914c-.028.015-.033.018.01-.003l-.01.003c.11-.047.59-.273.716-.32.506-.179.776.092 1.242-.167.11-.067.233-.246.335-.33.087-.078.248-.07.352-.143.259-.174.74-.727 1.072-.787.19-.035.19.015.287.024 0 .019.142-.028.105.257-.088.547 1.201-.007 2.05.194.576.138 1.138.333.989.704.02-.04-.169.115-.214.143-.397.287-.706-.028-.907-.057-.346-.041-.592.065-.947.021 0-.005-.426-.142-.426-.142-.269-.014-.657.126-.863.142-.39.03-.578-.108-.928-.071-.17.02-.446.243-.57.287-.114.043-.247.082-.36.118-.077.018-.269.124-.358.164-.353.175-.564.175-1.001.29l-.253.068c-.544.072-.49-.3-.321-.395ZM17.873 50.7c.584-.137.756.013 1.035.678.207.393.642.913.81 1.161-.674.078-1.744-.841-2.044-1.343-.19-.247.1-.443.199-.496Zm-7.43-2.783c.768-.215 1.447-.436 1.73-.6.104-.007.203-.007.306-.014a2.048 2.048 0 0 0 .323.736c-.465.01-1.404-.049-2.36-.122Zm1.6 1.344a15.11 15.11 0 0 0 1.13-.756c.163.192.342.37.541.54-.207.056-.86.137-1.67.216Z" fill="#8B0029"/><path d="m19.196 48.582.012-.004c-.049.024-.043.02-.012.004Z" fill="#8B0029"/></g><defs><clipPath id="clip0_90_2122"><path fill="#fff" d="M.179 0h57.249v77H.178z"/></clipPath></defs></svg>
