<svg fill="none" xmlns="http://www.w3.org/2000/svg" viewBox="0 0 192 70"><path fill="#76B900" d="M84.5 0h107.413v69.5H84.5z"/><path fill="#76B900" d="M84.5 0h107.413v69.5H84.5z"/><path d="M100.449 32V20.727h7.596v1.965h-5.212v2.686h4.821v1.965h-4.821v2.692h5.234V32h-7.618Zm9.491 0V20.727h2.383v9.308h4.833V32h-7.216Zm11.178-11.273V32h-2.384V20.727h2.384Zm1.531 1.965v-1.965h9.258v1.965h-3.451V32H126.1v-9.308h-3.451ZM133.432 32V20.727h7.596v1.965h-5.213v2.686h4.822v1.965h-4.822v2.692h5.235V32h-7.618Zm23.024-7.326h-2.41a2.353 2.353 0 0 0-.27-.831 2.115 2.115 0 0 0-.523-.628 2.302 2.302 0 0 0-.738-.396 2.82 2.82 0 0 0-.897-.138c-.583 0-1.091.145-1.524.435-.433.286-.769.705-1.008 1.255-.238.547-.358 1.211-.358 1.993 0 .803.12 1.478.358 2.025.242.547.58.96 1.013 1.239.433.279.934.418 1.503.418.319 0 .614-.042.886-.127.275-.084.519-.207.732-.368a2.11 2.11 0 0 0 .528-.6 2.34 2.34 0 0 0 .298-.804l2.41.011a4.493 4.493 0 0 1-1.464 2.78c-.414.374-.91.671-1.486.891-.572.217-1.22.325-1.943.325-1.005 0-1.904-.227-2.697-.682-.789-.455-1.413-1.114-1.871-1.976-.455-.863-.683-1.907-.683-3.132 0-1.23.231-2.276.694-3.138.462-.862 1.09-1.519 1.882-1.97.793-.455 1.684-.683 2.675-.683a5.8 5.8 0 0 1 1.817.275 4.605 4.605 0 0 1 1.491.804c.433.349.786.776 1.057 1.282.275.507.451 1.087.528 1.74Zm7.825-.705c-.044-.444-.233-.789-.567-1.035-.334-.245-.787-.368-1.36-.368-.389 0-.717.055-.985.165a1.384 1.384 0 0 0-.616.446c-.14.19-.21.407-.21.65a.929.929 0 0 0 .127.528c.095.15.226.28.391.39.165.107.356.2.572.281.217.077.448.143.694.198l1.013.242c.491.11.943.257 1.354.44.411.184.767.41 1.067.678.301.268.534.583.699.947.169.363.256.78.259 1.249-.003.69-.18 1.288-.528 1.794-.345.503-.844.894-1.497 1.173-.65.275-1.433.413-2.351.413-.91 0-1.702-.14-2.378-.419-.671-.279-1.196-.691-1.574-1.238-.374-.55-.57-1.231-.589-2.042h2.307c.025.378.133.693.324.947.195.249.453.438.776.566.327.125.696.188 1.107.188.403 0 .754-.06 1.051-.177a1.61 1.61 0 0 0 .699-.49 1.13 1.13 0 0 0 .248-.72.934.934 0 0 0-.226-.639c-.147-.172-.363-.32-.649-.44a6.631 6.631 0 0 0-1.041-.33l-1.227-.309c-.951-.231-1.701-.592-2.251-1.084-.551-.492-.824-1.154-.821-1.987-.003-.683.178-1.279.545-1.79.371-.51.879-.907 1.525-1.194.646-.286 1.38-.429 2.202-.429.836 0 1.567.143 2.191.43.627.286 1.115.684 1.464 1.194.348.51.528 1.1.539 1.772h-2.284ZM168.322 32V20.727h4.448c.855 0 1.583.164 2.185.49a3.32 3.32 0 0 1 1.376 1.349c.319.572.479 1.233.479 1.981 0 .749-.162 1.41-.485 1.982a3.332 3.332 0 0 1-1.403 1.337c-.609.32-1.347.48-2.213.48h-2.835v-1.91h2.45c.459 0 .837-.08 1.134-.238.301-.16.525-.383.671-.666a2.08 2.08 0 0 0 .226-.985c0-.374-.075-.7-.226-.98a1.5 1.5 0 0 0-.671-.654c-.301-.158-.683-.237-1.145-.237h-1.607V32h-2.384Zm-67.531 18V39.09h3.686c.855 0 1.555.155 2.098.464.547.306.952.72 1.215 1.241.263.523.394 1.105.394 1.748a3.86 3.86 0 0 1-.394 1.752 2.93 2.93 0 0 1-1.204 1.257c-.543.31-1.239.464-2.088.464h-2.642v-1.172h2.599c.586 0 1.057-.102 1.412-.304s.612-.476.772-.82c.164-.348.245-.74.245-1.177 0-.437-.081-.828-.245-1.172a1.751 1.751 0 0 0-.777-.81c-.359-.199-.835-.298-1.428-.298h-2.322V50h-1.321Zm8.855 0h-1.385l4.006-10.91h1.364L117.636 50h-1.385l-3.26-9.183h-.085L109.646 50Zm.512-4.261h5.582v1.172h-5.582v-1.172ZM119.335 50V39.09h3.687c.852 0 1.551.146 2.098.438.547.287.952.683 1.215 1.188.263.504.394 1.077.394 1.72s-.131 1.213-.394 1.71c-.263.497-.666.888-1.209 1.172-.544.28-1.238.42-2.083.42h-2.983v-1.193H123c.583 0 1.051-.085 1.406-.255.359-.17.618-.412.778-.725.164-.316.245-.692.245-1.129 0-.437-.081-.819-.245-1.145a1.668 1.668 0 0 0-.783-.757c-.359-.18-.833-.271-1.422-.271h-2.323V50h-1.321Zm5.135-4.9 2.685 4.9h-1.534l-2.642-4.9h1.491Zm3.864-4.837V39.09h8.181v1.172h-3.43V50h-1.321v-9.737h-3.43Zm18.871-1.172V50h-1.279l-5.944-8.565h-.107V50h-1.321V39.09h1.279l5.965 8.588h.107V39.09h1.3ZM149.848 50V39.09h6.584v1.173h-5.263v3.686h4.922v1.172h-4.922v3.707h5.348V50h-6.669Zm8.965 0V39.09h3.686c.852 0 1.552.146 2.099.438.547.287.951.683 1.214 1.188.263.504.394 1.077.394 1.72s-.131 1.213-.394 1.71c-.263.497-.666.888-1.209 1.172-.543.28-1.237.42-2.083.42h-2.983v-1.193h2.941c.582 0 1.051-.085 1.406-.255.359-.17.618-.412.778-.725.163-.316.245-.692.245-1.129 0-.437-.082-.819-.245-1.145a1.677 1.677 0 0 0-.783-.757c-.359-.18-.833-.271-1.423-.271h-2.322V50h-1.321Zm5.135-4.9 2.685 4.9h-1.535l-2.642-4.9h1.492Z" fill="#fff"/><path d="M84.5 0H.5v69.5h84V0Z" fill="#000"/><path d="M76 57c-.333 0-1 .2-1 1 0 .333.2 1 1 1 .333 0 1-.2 1-1 0-.333-.2-1-1-1Z" fill="#fff"/><path d="M76 57.2c-.267 0-.8.16-.8.8 0 .267.16.8.8.8.267 0 .8-.16.8-.8 0-.267-.16-.8-.8-.8Z" fill="#000"/><path d="M75.5 58.5v-1h.688c.187 0 .312.176.312.316s-.063.263-.25.316l.25.368h-.313l-.25-.368h-.124v.368H75.5Z" fill="#fff"/><path d="M76.063 57.71h-.25v.211h.25c.047 0 .124-.021.124-.105 0-.035-.01-.106-.124-.106Z" fill="#000"/><path d="M64.5 47 60 58.5h3.5l1-2.5h5l1 2.5H74L69.5 47h-5Z" fill="#fff"/><path d="M69 54h-4l2-5 2 5Z" fill="#000"/><path d="M58.5 47H55v11.5h3.5V47Zm-10 0h-6v11.5h6c1.667 0 5-.7 5-3.5v-4c0-1.333-1-4-5-4Z" fill="#fff"/><path d="M45.907 49.677v6.408h2.576c1.341 0 2.086-1.278 2.086-2.555v-1.49c0-1.277-.34-2.363-2.554-2.363h-2.108Z" fill="#000"/><path d="M41 47h-3.5v11.5H41V47Zm-13.336.204h-3.416L27.822 58.5H32.5l3.68-11.296h-3.286l-2.628 8.778-2.602-8.778Zm-15.471-.042V58.5H15.5V50h3c1.25 0 2 .75 2 2v6.5h3.104v-7.525c0-2.55-2.313-3.813-4.07-3.813h-7.34Z" fill="#fff"/><path d="m58.5 30.562-5-3.062c-11.175 10.756-26.846 12.879-32.597-2.938 8.525-9.672 18.694-8.632 25.699-.367-7.728 9.587-15.17 9.377-18.468 1.13 3.734-4.152 8.44-2.825 10.44 2.175l3.75-3.305c-4.813-6.25-13.574-3.881-17.987.723 7.215 16.14 21.451 5.644 26.875-.723-5-6.5-13.212-9.172-18.212-8.672s-11.526 3.57-16.769 8.672c8.106 17.993 24.27 17.224 42.269 6.367Z" fill="#76B900"/><path d="M61.928 11.32h-28.5v30.5h28.5v-30.5Z" fill="#76B900"/><mask id="mask0_112_5116" style="mask-type:alpha" maskUnits="userSpaceOnUse" x="33" y="11" width="29" height="31"><path d="M61.928 11.32h-28.5v30.5h28.5v-30.5Z" fill="#76B900"/></mask><g mask="url(#mask0_112_5116)"><path d="m58.5 30.562-5-3.062c-11.175 10.756-26.846 12.88-32.597-2.938 8.525-9.672 18.694-8.632 25.699-.367-7.728 9.587-15.17 9.377-18.468 1.13 3.734-4.152 8.44-2.825 10.44 2.175l3.75-3.305c-4.813-6.25-13.574-3.881-17.987.723 7.215 16.14 21.451 5.644 26.875-.723-5-6.5-13.212-9.172-18.212-8.672s-11.526 3.57-16.769 8.672c8.106 17.993 24.27 17.225 42.269 6.367Z" fill="#000"/></g></svg>
