<svg id="Layer_1" data-name="Layer 1" xmlns="http://www.w3.org/2000/svg" viewBox="35 35 275 40"><defs><style>.cls-2{fill:#fff}</style></defs><path d="m255.34 50.66-.74-.58c-2.5-2-3.24-2.95-3.24-4.46a3 3 0 0 1 3.26-3.08c2.45 0 3.16 1.12 3.32 1.41a4.75 4.75 0 0 1 .35 1.33c0 .21 0 .34.21.34s.18-.19.18-.61c0-1.8.11-2.68.11-2.81s-.05-.19-.27-.19a4.65 4.65 0 0 1-.92-.13 10.31 10.31 0 0 0-2.47-.27c-3.37 0-5.5 1.94-5.5 4.78 0 1.8.64 3.45 3.45 5.76l1.2 1c2.28 1.89 3 2.95 3 4.78a3.54 3.54 0 0 1-3.79 3.53c-1.78 0-3.53-.75-3.93-2.71a4.62 4.62 0 0 1-.08-1c0-.21 0-.29-.19-.29s-.18.13-.21.42-.13 1.49-.13 2.81v.44a.17.17 0 0 1-.23.17 6.52 6.52 0 0 1-2.2-1.61c-1.54-1.65-3.35-4-5.52-6.8 2.39-2.2 3.21-4.16 3.21-6.13a4.66 4.66 0 0 0-1.83-3.61 8.18 8.18 0 0 0-4.8-1.15c-.82 0-2.84.08-3.13.08-.13 0-1.81-.08-3-.08-.29 0-.42.06-.42.22s.1.16.21.16a4.37 4.37 0 0 1 .9.08c.88.18 1.09.61 1.14 1.51s.06 1.59.06 5.73v4.67c0 2.55 0 4.65-.14 5.76-.1.77-.24 1.35-.77 1.46a4.29 4.29 0 0 1-.79.11c-.16 0-.22.08-.22.16s.14.21.43.21c.79 0 2.47-.08 2.49-.08s1.81.08 3.27.08c.29 0 .42-.08.42-.21s-.05-.16-.21-.16-.82-.06-1.19-.11c-.8-.11-1-.69-1-1.46-.13-1.11-.13-3.21-.13-5.76v-.64c0-.13 0-.21.18-.21l3.27.06a.42.42 0 0 1 .34.15c.53.69 1.78 2.47 2.9 3.93 1.51 2 2.44 3.29 3.58 3.9a5.3 5.3 0 0 0 2.84.51h.75a8.75 8.75 0 0 1 1.69.19 9.59 9.59 0 0 0 1.94.18 7 7 0 0 0 4-1.12 5.48 5.48 0 0 0 2.25-4.4c-.03-2.14-.77-3.79-3.9-6.26Zm-14.92 1.57a3.46 3.46 0 0 1-2 .5 7.33 7.33 0 0 1-2.79-.42.35.35 0 0 1-.18-.32v-8.68a.33.33 0 0 1 .21-.32 8 8 0 0 1 1.78-.16c2.84 0 4.59 2 4.59 5.31-.03 2.02-.68 3.45-1.61 4.09Zm-95.05-2.55c0-4.14 0-4.88-.05-5.73s-.26-1.33-1.14-1.51a4.37 4.37 0 0 0-.9-.08c-.11 0-.21-.06-.21-.16s.13-.22.42-.22c1.19 0 2.81.08 3 .08s1.83-.08 2.63-.08c.29 0 .42.06.42.22s-.1.16-.21.16a3.36 3.36 0 0 0-.66.08c-.72.1-.93.58-1 1.51s-.06 1.59-.06 5.73v3.72c0 3.82.85 5.46 2 6.55a5.2 5.2 0 0 0 4 1.46 5.59 5.59 0 0 0 4.17-1.91c1.22-1.51 1.54-3.77 1.54-6.5v-3.32c0-4.14 0-4.88-.06-5.73s-.26-1.33-1.14-1.51a4.37 4.37 0 0 0-.9-.08c-.11 0-.21-.06-.21-.16s.13-.22.42-.22c1.2 0 2.66.08 2.82.08s1.43-.08 2.22-.08c.3 0 .43.06.43.22s-.11.16-.21.16a2.33 2.33 0 0 0-.67.08c-.71.13-.93.58-1 1.51s-.05 1.59-.05 5.73v2.84c0 2.87-.32 6-2.44 7.94a7.81 7.81 0 0 1-5.47 2 8.2 8.2 0 0 1-5.47-1.88c-1.3-1.25-2.31-3.11-2.31-7Zm22.16 8.76c.05 2.17.32 2.86 1 3.08a6 6 0 0 0 1.32.16c.14 0 .22 0 .22.16s-.16.21-.48.21c-1.51 0-2.58-.08-2.81-.08s-1.36.08-2.55.08c-.27 0-.43 0-.43-.21s.08-.16.22-.16a3.84 3.84 0 0 0 1.08-.16c.67-.19.8-1 .8-3.37V42.94c0-1 .08-1.33.29-1.33s.66.59.93.85c.39.45 4.35 4.73 8.44 9.11 2.62 2.81 5.52 6 6.37 6.92L181.7 45c0-1.72-.21-2.31-1-2.52a6.73 6.73 0 0 0-1.3-.13c-.19 0-.21-.08-.21-.19s.21-.19.53-.19c1.19 0 2.46.08 2.76.08s1.16-.08 2.25-.08c.29 0 .48 0 .48.19s-.11.19-.29.19a2.36 2.36 0 0 0-.64.08c-.87.18-1 .77-1 2.36l-.05 15.55c0 1.75-.06 1.88-.24 1.88s-.53-.29-1.94-1.69c-.29-.27-4.11-4.17-6.93-7.2-3.12-3.33-6.12-6.65-6.93-7.6Zm23.69-4.09c0 2.55 0 4.65.14 5.76.08.77.24 1.35 1 1.46.37 0 1 .11 1.2.11s.21.08.21.16-.13.21-.43.21c-1.46 0-3.13-.08-3.26-.08s-1.8.08-2.6.08c-.29 0-.43-.06-.43-.21s.06-.16.22-.16a4.29 4.29 0 0 0 .79-.11c.53-.11.67-.69.77-1.46.14-1.11.14-3.21.14-5.76v-4.67c0-4.14 0-4.88-.06-5.73s-.32-1.35-.9-1.49a3.41 3.41 0 0 0-.82-.1c-.11 0-.21-.06-.21-.16s.13-.22.42-.22c.88 0 2.55.08 2.68.08s1.8-.08 2.6-.08c.29 0 .43.06.43.22s-.11.16-.22.16a3.36 3.36 0 0 0-.66.08c-.72.13-.93.58-1 1.51s-.06 1.59-.06 5.73Zm14.28 4.46c1.54-3.56 5.09-12.82 5.68-14.73a4 4 0 0 0 .24-1 .66.66 0 0 0-.35-.61 3.54 3.54 0 0 0-1-.1c-.15 0-.29 0-.29-.16s.16-.22.59-.22c1.06 0 2.28.08 2.6.08.16 0 1.3-.08 2.07-.08.29 0 .45.06.45.19s-.11.19-.32.19a2.43 2.43 0 0 0-1.27.31c-.35.24-.75.69-1.46 2.5-.3.74-1.62 3.93-3 7.19-1.61 3.88-2.81 6.74-3.42 8-.74 1.59-.85 2-1.11 2s-.46-.37-1-1.65l-6.5-16.26c-.59-1.49-1-1.78-1.91-2a4.39 4.39 0 0 0-1-.1c-.16 0-.21-.08-.21-.19s.26-.19.69-.19c1.27 0 2.78.08 3.1.08s1.46-.08 2.47-.08c.48 0 .72.06.72.19s-.08.19-.27.19a3 3 0 0 0-1 .13.52.52 0 0 0-.34.53 10.51 10.51 0 0 0 .71 2.2Zm13.5-9.13v-5.73c0-.85-.27-1.33-1.15-1.51a4.37 4.37 0 0 0-.9-.08c-.1 0-.21-.06-.21-.16s.13-.22.42-.22c1.2 0 2.87.08 3 .08h6.08a8 8 0 0 0 1.14-.13c.13 0 .24-.14.37-.14s.11.11.11.24-.13.51-.21 1.25c0 .26-.08 1.43-.14 1.75 0 .13-.08.29-.18.29s-.21-.13-.21-.34a2.94 2.94 0 0 0-.16-1c-.19-.42-.45-.74-1.89-.9-.45-.05-3.34-.08-3.63-.08-.11 0-.16.08-.16.27v7.32c0 .19 0 .27.16.27.34 0 3.61 0 4.22-.06s1-.1 1.24-.37.3-.34.4-.34.13 0 .13.21-.13.61-.21 1.48c-.05.53-.1 1.52-.1 1.7s0 .51-.19.51-.19-.11-.19-.24a2.89 2.89 0 0 0-.1-.88c-.11-.37-.35-.82-1.38-.93-.72-.08-3.35-.13-3.8-.13a.17.17 0 0 0-.18.19v6.87c.08 1.83.48 2.18 3.08 2.18a7.37 7.37 0 0 0 2.54-.3c.69-.29 1-.82 1.2-1.91.05-.29.1-.39.24-.39s.16.21.16.39-.22 2-.35 2.58-.4.69-1.43.69c-4 0-5.79-.16-6.56-.16-.13 0-1.8.08-2.6.08-.29 0-.42-.06-.42-.21s.05-.16.21-.16a4.4 4.4 0 0 0 .8-.11c.53-.11.66-.69.77-1.46.13-1.11.13-3.21.13-5.76Zm47.33 4.67c0 2.55 0 4.65.13 5.76.08.77.24 1.35 1 1.46.38 0 1 .11 1.2.11s.21.08.21.16-.13.21-.42.21c-1.46 0-3.14-.08-3.27-.08s-1.8.08-2.6.08c-.29 0-.42-.06-.42-.21s.05-.16.21-.16a4.18 4.18 0 0 0 .79-.11c.54-.11.67-.69.77-1.46.14-1.11.14-3.21.14-5.76v-4.67c0-4.14 0-4.88-.06-5.73s-.31-1.35-.9-1.49a3.41 3.41 0 0 0-.82-.1c-.11 0-.21-.06-.21-.16s.13-.22.42-.22c.88 0 2.55.08 2.68.08S267 42 267.81 42c.29 0 .43.06.43.22s-.11.16-.22.16a3.36 3.36 0 0 0-.66.08c-.72.13-.93.58-1 1.51s-.05 1.59-.05 5.73Zm12.81 0c0 2.55 0 4.65.13 5.76.08.77.24 1.35 1 1.46.37 0 1 .11 1.19.11s.22.08.22.16-.14.21-.43.21c-1.46 0-3.13-.08-3.26-.08s-1.81.08-2.6.08c-.3 0-.43-.06-.43-.21s.05-.16.21-.16a4.4 4.4 0 0 0 .8-.11c.53-.11.66-.69.77-1.46.13-1.11.13-3.21.13-5.76V43.13h-3.92c-1.65 0-2.29.21-2.71.85a5 5 0 0 0-.45.82c-.08.21-.16.27-.27.27s-.13-.08-.13-.24.53-2.55.58-2.76.16-.51.27-.51a4.66 4.66 0 0 0 1.17.32c.77.08 1.77.13 2.09.13h9.95a13.11 13.11 0 0 0 2.63-.26c.13 0 .13.16.13.32 0 .79-.08 2.62-.08 2.92s-.08.34-.18.34-.19-.08-.21-.45v-.29c-.11-.8-.72-1.41-3.26-1.46h-3.35Zm16.53.82a5.56 5.56 0 0 0-.61-2.78c-.18-.43-3.74-6.27-4.67-7.65a7.36 7.36 0 0 0-1.8-2 2.59 2.59 0 0 0-1.14-.42c-.14 0-.27-.06-.27-.19s.11-.19.35-.19c.5 0 2.49.08 2.62.08s1.2-.08 2.23-.08c.3 0 .35.08.35.19s-.16.13-.4.24a.53.53 0 0 0-.34.48 2.26 2.26 0 0 0 .34 1c.43.77 4.41 7.62 4.88 8.39.51-1.12 3.88-6.93 4.41-7.8a2.65 2.65 0 0 0 .45-1.36c0-.37-.11-.66-.42-.74s-.4-.13-.4-.27.16-.16.42-.16c.69 0 1.54.08 1.75.08s2.07.01 2.58.01c.18 0 .34.06.34.16s-.13.22-.34.22a2.46 2.46 0 0 0-1.22.37 5 5 0 0 0-1.41 1.35 84.19 84.19 0 0 0-5.07 8.44 6.33 6.33 0 0 0-.4 2.65v2.29c0 .42 0 1.54.08 2.65.06.77.3 1.35 1.09 1.46.37 0 1 .11 1.2.11s.21.08.21.16-.13.21-.43.21c-1.46 0-3.13-.08-3.26-.08s-1.81.08-2.6.08c-.29 0-.43-.06-.43-.21s.06-.16.22-.16a4.41 4.41 0 0 0 .79-.11c.53-.11.77-.69.82-1.46.08-1.11.08-2.23.08-2.65Zm-190.85 4.38a10.17 10.17 0 0 1-3.21-7.85 10.58 10.58 0 0 1 3-7.25c1.59-1.59 4-2.84 8.09-2.84a22.67 22.67 0 0 1 3.85.32 21.83 21.83 0 0 0 2.7.4c.3 0 .35.13.35.29s-.08.53-.13 1.49-.06 2.33-.08 2.73-.08.56-.24.56-.21-.19-.21-.56a3.7 3.7 0 0 0-1.12-2.71 8.88 8.88 0 0 0-5.31-1.51c-3.53 0-5.17 1-6.1 1.94-1.94 1.86-2.39 4.22-2.39 6.93a9.59 9.59 0 0 0 9.58 9.71c2 0 3.56-.24 4.62-1.33a5 5 0 0 0 1-2.23c0-.29.11-.4.27-.4s.18.19.18.4a28.23 28.23 0 0 1-.58 3.4c-.16.5-.21.56-.69.77a15.52 15.52 0 0 1-4.78.61c-4.02 0-6.7-.98-8.8-2.87Zm19.59-9.87v-5.73c0-.85-.27-1.33-1.15-1.51a4.37 4.37 0 0 0-.9-.08c-.1 0-.21-.06-.21-.16s.13-.22.42-.22c1.2 0 2.87.08 3 .08h6.08a8 8 0 0 0 1.14-.13c.13 0 .24-.14.37-.14s.11.11.11.24-.13.51-.21 1.25c0 .26-.08 1.43-.14 1.75 0 .13-.08.29-.18.29s-.21-.13-.21-.34a2.94 2.94 0 0 0-.16-1c-.19-.42-.45-.74-1.89-.9-.45-.05-3.34-.08-3.63-.08-.11 0-.16.08-.16.27v7.32c0 .19 0 .27.16.27.34 0 3.61 0 4.22-.06s1-.1 1.24-.37.3-.34.4-.34.13 0 .13.21-.13.61-.21 1.48c-.05.53-.1 1.52-.1 1.7s0 .51-.19.51-.19-.11-.19-.24a2.89 2.89 0 0 0-.1-.88c-.11-.37-.35-.82-1.38-.93-.72-.08-3.35-.13-3.8-.13a.17.17 0 0 0-.18.19v6.87c.08 1.83.48 2.18 3.08 2.18a7.37 7.37 0 0 0 2.54-.3c.69-.29 1-.82 1.2-1.91 0-.29.1-.39.24-.39s.16.21.16.39-.22 2-.35 2.58-.4.69-1.43.69c-4 0-5.79-.16-6.56-.16-.13 0-1.8.08-2.6.08-.29 0-.42-.06-.42-.21s0-.16.21-.16a4.4 4.4 0 0 0 .8-.11c.53-.11.66-.69.77-1.46.13-1.11.13-3.21.13-5.76ZM94.23 61.51a2.31 2.31 0 0 1-1-.17A6.39 6.39 0 0 1 91 59.69c-1.54-1.65-3.35-4-5.52-6.8 2.39-2.2 3.21-4.16 3.21-6.13a4.66 4.66 0 0 0-1.83-3.61A8.18 8.18 0 0 0 82 42c-.82 0-2.84.08-3.13.08-.13 0-1.8-.08-3-.08-.29 0-.42.06-.42.22s.1.16.21.16a4.37 4.37 0 0 1 .9.08c.88.18 1.09.61 1.14 1.51s.06 1.59.06 5.73v4.67c0 2.55 0 4.65-.14 5.76-.1.77-.24 1.35-.77 1.46a4.29 4.29 0 0 1-.79.11c-.16 0-.21.08-.21.16s.13.21.42.21c.8 0 2.47-.08 2.49-.08s1.81.08 3.27.08c.29 0 .42-.08.42-.21s0-.16-.21-.16-.82-.06-1.19-.11c-.8-.11-1-.69-1-1.46-.13-1.11-.13-3.21-.13-5.76v-.64c0-.13 0-.21.18-.21l3.27.06a.42.42 0 0 1 .34.15c.53.69 1.78 2.47 2.9 3.93 1.51 2 2.44 3.29 3.58 3.9a5.3 5.3 0 0 0 2.84.51h.78c.79 0 2.47-.08 2.6-.08s1.8.08 3.26.08c.3 0 .43-.08.43-.21s-.06-.16-.21-.16-.83-.06-1.2-.11c-.79-.11-1-.69-1-1.46-.14-1.11-.14-3.21-.14-5.76v-4.69c0-4.14 0-4.88.06-5.73s.26-1.38 1-1.51a3 3 0 0 1 .7-.08.17.17 0 0 0 .17-.18c0-.15-.14-.2-.42-.2-.8 0-2.47.08-2.6.08S94.52 42 93.65 42c-.29 0-.43.06-.43.22s.11.16.22.16a3.41 3.41 0 0 1 .82.1c.58.14.85.59.9 1.49s0 1.59 0 5.73v4.67c0 2.55 0 4.65-.13 5.76a3.56 3.56 0 0 1-.24 1 .69.69 0 0 1-.61.38Zm-9.43-9.28a3.46 3.46 0 0 1-2 .5 7.33 7.33 0 0 1-2.8-.42.35.35 0 0 1-.18-.32v-8.68a.33.33 0 0 1 .21-.32 8 8 0 0 1 1.78-.16c2.84 0 4.59 2 4.59 5.31.02 2.02-.67 3.45-1.6 4.09ZM65.47 52a21.22 21.22 0 0 1-13.26 19.68 4.36 4.36 0 0 1-3.29 0A21.22 21.22 0 0 1 35.66 52V39.2a1.23 1.23 0 0 1 .88-1.2 49.57 49.57 0 0 1 11.3-1.94c.9 0 1.81-.07 2.72-.07a49.62 49.62 0 0 1 14 2 1.25 1.25 0 0 1 .88 1.19Z" style="fill:#002169"/><path class="cls-2" d="M50.28 60.91a.49.49 0 0 0-.49.5.38.38 0 0 0 .05.21l.39.82a.05.05 0 0 0 .1 0l.39-.82a.5.5 0 0 0 .05-.21.49.49 0 0 0-.49-.5Zm-2.01 1.79a.5.5 0 0 0-.24-.43h-.05a.09.09 0 0 0-.14.06 3.4 3.4 0 0 0 0 .45 3.81 3.81 0 0 0 .57 2 3.72 3.72 0 0 0 .33.45.07.07 0 0 0 .08 0 .07.07 0 0 0 0-.1 4.81 4.81 0 0 1-.57-2.27.81.81 0 0 1 .02-.16Zm1.34 5.58h.01-.01zm1.01-.7.15-.24a.2.2 0 0 0-.08-.27l-.11-.07a.06.06 0 0 0-.08 0 5.75 5.75 0 0 1-.34.65.62.62 0 0 1-.53.29h-.18a.25.25 0 0 0-.23.16v.07a.06.06 0 0 0 .06.08h.1a.07.07 0 0 0 .06 0 .22.22 0 0 1 .28-.12.05.05 0 0 0 0 .08h.31a.07.07 0 0 0 .06 0v-.2a.49.49 0 0 1 .22-.25.64.64 0 0 0 .31-.18Zm.21.7zm1-1.35a.06.06 0 0 0-.09 0 4.84 4.84 0 0 1-.36.72.64.64 0 0 1-.53.29h-.18a.24.24 0 0 0-.23.16v.07a.05.05 0 0 0 .05.08h.1a.08.08 0 0 0 .07 0 .21.21 0 0 1 .28-.12.06.06 0 0 0 .06.08h.56a.12.12 0 0 1 .14 0l.11.06H52v-.16a.17.17 0 0 0-.16-.12h-.14s-.07-.06 0-.1l.08-.1c.08-.12.16-.24.23-.36l.08-.15A.2.2 0 0 0 52 67Zm.3-6.93a.79.79 0 0 1 .19.26.44.44 0 0 0 .27.21 1.38 1.38 0 0 1 .53.26 1.57 1.57 0 0 0-.28-.89.16.16 0 0 0-.13-.08h-.05a.94.94 0 0 0-.59.23s.06-.05.06.01Zm.34.72a1 1 0 0 1-.11.38.3.3 0 0 0 0 .29 1.4 1.4 0 0 1 .09.56 1.56 1.56 0 0 0 .59-.63.38.38 0 0 0-.1-.46.94.94 0 0 0-.44-.2ZM51 59.84a1 1 0 0 1 .47-.13h.27a.34.34 0 0 0 .22-.07 1.26 1.26 0 0 1 .5-.26 1.32 1.32 0 0 0-.45-.21.57.57 0 0 0-.18 0h-.17a.85.85 0 0 0-.43.22 1.17 1.17 0 0 0-.29.44Zm-1.2-.3a2.05 2.05 0 0 1 .18.51 2.24 2.24 0 0 1 0 .58.75.75 0 0 1 .42 0 2.24 2.24 0 0 1 0-.58 1.48 1.48 0 0 1 .18-.51 1.59 1.59 0 0 1 .13-.22 1.59 1.59 0 0 0-.45.37.15.15 0 0 1-.22 0 1.59 1.59 0 0 0-.45-.37 1.59 1.59 0 0 1 .21.22Zm-1.22.13a.34.34 0 0 0 .22.07h.27a1 1 0 0 1 .47.13h.05a1.17 1.17 0 0 0-.29-.44.85.85 0 0 0-.43-.22h-.17a.48.48 0 0 0-.18 0 1.24 1.24 0 0 0-.45.21 1.33 1.33 0 0 1 .51.25Zm-.36.56a1 1 0 0 1 .2-.26.94.94 0 0 0-.59-.23.16.16 0 0 0-.13.08 1.49 1.49 0 0 0-.28.89 1.32 1.32 0 0 1 .53-.26.4.4 0 0 0 .27-.22ZM48.15 62a1.4 1.4 0 0 1 .09-.56.33.33 0 0 0 0-.29 1.29 1.29 0 0 1-.12-.38.94.94 0 0 0-.45.21.32.32 0 0 0-.12.2.33.33 0 0 0 0 .24 1.46 1.46 0 0 0 .59.64s0-.06.01-.06Z"/><path class="cls-2" d="M52.16 66.05a5 5 0 0 1-.87-1.46 4.86 4.86 0 0 1-.29-1.73 2.62 2.62 0 0 1 0-.28.08.08 0 0 1-.08-.08.21.21 0 0 1 .21-.22h.75a.29.29 0 0 0 .24-.25 1 1 0 0 0-.08-.47.93.93 0 0 1-.46.12.9.9 0 0 1-.4-.09 1.18 1.18 0 0 1-.07.2l-.45 1a.27.27 0 0 1-.48 0l-.45-1a1.18 1.18 0 0 1-.07-.2.9.9 0 0 1-.4.09.93.93 0 0 1-.46-.12 1 1 0 0 0-.08.47.29.29 0 0 0 .24.25h.75a.21.21 0 0 1 .21.22.08.08 0 0 1-.08.08H48.7a.09.09 0 0 0-.09.09 2.09 2.09 0 0 0 0 .25 4.6 4.6 0 0 0 .71 2.45 4.22 4.22 0 0 0 .74.89 4.44 4.44 0 0 0 .93.68.36.36 0 0 0 0-.09.58.58 0 0 0 0-.32.57.57 0 0 0-.14-.28 5.27 5.27 0 0 1-.58-.76.2.2 0 0 1 0-.07.09.09 0 0 1 0-.06.23.23 0 0 1 .11 0 .21.21 0 0 1 .18.1 5 5 0 0 0 .76.9c.13.11.26.22.4.32l.36.24.06-.17a.61.61 0 0 0 0-.3.59.59 0 0 0-.14-.27Zm.51.5a4.27 4.27 0 0 1-.27.67 8.26 8.26 0 0 0 .94.36.06.06 0 0 0 .06 0l.14-.22v-.1a.11.11 0 0 0 0-.15 4.72 4.72 0 0 1-.87-.56Z"/><path class="cls-2" d="M54.4 66.61a4.08 4.08 0 0 1-1.58-1.13 3.71 3.71 0 0 1-.77-1.35.06.06 0 0 1 0-.06.1.1 0 0 1 .05 0h.07a.24.24 0 0 1 .21.14 3.77 3.77 0 0 0 .62 1.08 3.63 3.63 0 0 0 .87.74 4 4 0 0 0 .75.35v-.2a.74.74 0 0 0-.37-.53 3.39 3.39 0 0 1-.83-.68 3.18 3.18 0 0 1-.68-1.33.13.13 0 0 1 0-.06.1.1 0 0 1 .05 0 .22.22 0 0 1 .22.16 2.52 2.52 0 0 0 .23.57 2.49 2.49 0 0 0 .35.5 3 3 0 0 0 .77.64h.05a12.15 12.15 0 0 0-.43-1.64 3.08 3.08 0 0 0-.46-.88 2.66 2.66 0 0 0-.68-.66.16.16 0 0 0-.09 0 .13.13 0 0 0-.1 0 1.71 1.71 0 0 1-.55.29 1.84 1.84 0 0 1-.62.11h-.22a.1.1 0 0 0-.1.09v.22a4.65 4.65 0 0 0 .29 1.62 4.66 4.66 0 0 0 1.93 2.31 4.25 4.25 0 0 0 1.35.54.83.83 0 0 1 0-.15.77.77 0 0 0-.33-.69Zm-2.89.28v-.12c0-.04 0 0 0 0l-.18-.15h-.06v.19l.19.11s.04-.01.05-.03ZM51.49 60a.67.67 0 1 0 .67.67.67.67 0 0 0-.67-.67Zm0 1.13a.47.47 0 0 1-.45-.45.46.46 0 0 1 .3-.44s.07 0 0 .06a.33.33 0 0 0-.08.24.36.36 0 0 0 .33.34.32.32 0 0 0 .24-.09h.06a.45.45 0 0 1-.41.33ZM49.07 60a.67.67 0 1 0 .67.67.67.67 0 0 0-.67-.67Zm0 1.13a.45.45 0 0 1-.45-.45.44.44 0 0 1 .3-.44v.06a.3.3 0 0 0-.08.24.35.35 0 0 0 .33.34.34.34 0 0 0 .24-.09h.06a.45.45 0 0 1-.41.33ZM41 40.8a.49.49 0 0 0-.44.71l.39.82a.06.06 0 0 0 .11 0l.39-.82a.5.5 0 0 0 .05-.21.51.51 0 0 0-.5-.5Zm-2 1.79a.47.47 0 0 0-.24-.43h-.05a.09.09 0 0 0-.14.07 3.15 3.15 0 0 0 0 .44 3.81 3.81 0 0 0 .57 2 3 3 0 0 0 .34.45.06.06 0 0 0 .08 0 .08.08 0 0 0 0-.1 4.8 4.8 0 0 1-.56-2.27Zm1.36 5.58zm1.01-.7c.05-.08.1-.16.14-.24a.21.21 0 0 0-.07-.27l-.11-.06a.06.06 0 0 0-.09 0 5.75 5.75 0 0 1-.34.65.62.62 0 0 1-.53.29h-.17a.25.25 0 0 0-.2.16v.07a.05.05 0 0 0 .05.08h.1a.07.07 0 0 0 .06 0 .22.22 0 0 1 .28-.12.06.06 0 0 0 .06.08h.31v-.2a.54.54 0 0 1 .22-.25.8.8 0 0 0 .29-.19Zm.2.7h.01-.01zm1.01-1.35h-.09a4.89 4.89 0 0 1-.37.72.62.62 0 0 1-.53.29h-.18a.25.25 0 0 0-.23.16v.07a.06.06 0 0 0 .06.08h.1a.07.07 0 0 0 .06 0 .22.22 0 0 1 .28-.12.05.05 0 0 0 .05.08h.56a.12.12 0 0 1 .14 0l.11.06h.23V48a.17.17 0 0 0-.16-.12h-.13a.06.06 0 0 1 0-.1l.07-.1c.08-.12.16-.24.23-.36a1.09 1.09 0 0 0 .08-.15.2.2 0 0 0-.07-.26Zm.29-6.98a1.24 1.24 0 0 1 .19.26.42.42 0 0 0 .26.21 1.26 1.26 0 0 1 .53.26 1.56 1.56 0 0 0-.27-.89.19.19 0 0 0-.14-.08h-.05a.91.91 0 0 0-.58.23s.06 0 .06.01Zm.34.77a.89.89 0 0 1-.12.38.37.37 0 0 0 0 .29 1.24 1.24 0 0 1 .09.56 1.53 1.53 0 0 0 .58-.63.36.36 0 0 0 0-.25.32.32 0 0 0-.13-.21.89.89 0 0 0-.44-.2Zm-1.47-.88a1 1 0 0 1 .47-.13h.28a.33.33 0 0 0 .21-.07 1.41 1.41 0 0 1 .5-.26 1.32 1.32 0 0 0-.45-.21.58.58 0 0 0-.19 0h-.17a.78.78 0 0 0-.42.22 1.15 1.15 0 0 0-.3.44Zm-1.19-.3a1.7 1.7 0 0 1 .17.51 2.24 2.24 0 0 1 .05.58.75.75 0 0 1 .42 0 2.24 2.24 0 0 1 0-.58 2.05 2.05 0 0 1 .18-.51 1.59 1.59 0 0 1 .13-.22 1.43 1.43 0 0 0-.44.37.17.17 0 0 1-.12 0 .16.16 0 0 1-.11 0 1.59 1.59 0 0 0-.45-.37 1.64 1.64 0 0 1 .17.22Zm-1.23.13a.34.34 0 0 0 .22.07h.27a1 1 0 0 1 .47.13 1.42 1.42 0 0 0-.3-.44.86.86 0 0 0-.42-.22h-.18a.57.57 0 0 0-.18 0 1.32 1.32 0 0 0-.45.21 1.26 1.26 0 0 1 .57.25Zm-.32.56a1 1 0 0 1 .19-.26.91.91 0 0 0-.59-.23.16.16 0 0 0-.14.08 1.57 1.57 0 0 0-.28.89 1.38 1.38 0 0 1 .53-.26.42.42 0 0 0 .29-.22Zm-.11 1.79a1.4 1.4 0 0 1 .09-.56A.33.33 0 0 0 39 41a.89.89 0 0 1-.12-.38 1.17 1.17 0 0 0-.45.21.37.37 0 0 0-.12.2.33.33 0 0 0 0 .24 1.52 1.52 0 0 0 .59.64Z"/><path class="cls-2" d="M42.91 45.94a4.72 4.72 0 0 1-.91-1.46 4.83 4.83 0 0 1-.32-1.73 2.62 2.62 0 0 1 0-.28.09.09 0 0 1-.08-.08.22.22 0 0 1 .22-.22h.74a.28.28 0 0 0 .24-.25 1 1 0 0 0-.07-.47.9.9 0 0 1-.46.12.93.93 0 0 1-.4-.09.49.49 0 0 1-.07.19l-.45 1a.26.26 0 0 1-.24.15.28.28 0 0 1-.24-.15l-.45-1a.7.7 0 0 1-.06-.19 1 1 0 0 1-.41.09.93.93 0 0 1-.46-.12 1 1 0 0 0-.07.47.28.28 0 0 0 .23.25h.75a.22.22 0 0 1 .22.22.09.09 0 0 1-.08.08H39.4a.09.09 0 0 0-.1.09v.25a4.6 4.6 0 0 0 .7 2.39 4.55 4.55 0 0 0 .74.89 4.35 4.35 0 0 0 .93.68v-.09a.58.58 0 0 0 0-.32.5.5 0 0 0-.14-.28 5.2 5.2 0 0 1-.57-.76.06.06 0 0 1 0-.07.07.07 0 0 1 0-.06.2.2 0 0 1 .11 0 .22.22 0 0 1 .18.1 4.65 4.65 0 0 0 .76.9 4.16 4.16 0 0 0 .39.32l.36.24.06-.17a.61.61 0 0 0 0-.3.68.68 0 0 0-.13-.27Zm.5.5a4.27 4.27 0 0 1-.27.67 9 9 0 0 0 .94.36.09.09 0 0 0 .07 0l.13-.22.06-.1a.12.12 0 0 0 0-.15 4.72 4.72 0 0 1-.93-.56Z"/><path class="cls-2" d="M45.14 46.5a4.41 4.41 0 0 1-.65-.33 3.9 3.9 0 0 1-.93-.79 4.17 4.17 0 0 1-.77-1.38.07.07 0 0 1 0-.06h.07a.23.23 0 0 1 .21.14 3.49 3.49 0 0 0 .67 1.13 3.79 3.79 0 0 0 .86.74 4.26 4.26 0 0 0 .75.35v-.2a.79.79 0 0 0-.38-.53 3.39 3.39 0 0 1-.83-.68 3.16 3.16 0 0 1-.67-1.33v-.06a.1.1 0 0 1 .05 0 .22.22 0 0 1 .21.16 2.83 2.83 0 0 0 .23.57 3.54 3.54 0 0 0 .35.51 3 3 0 0 0 .78.63 12.2 12.2 0 0 0-.42-1.64 3.35 3.35 0 0 0-.46-.88 3 3 0 0 0-.68-.66.17.17 0 0 0-.1 0 .14.14 0 0 0-.1 0 1.91 1.91 0 0 1-.54.3 2.17 2.17 0 0 1-.62.1h-.23a.09.09 0 0 0-.09.09 1.62 1.62 0 0 0 0 .22 4.64 4.64 0 0 0 1.11 3 4.71 4.71 0 0 0 2.47 1.49s0-.1 0-.15a.72.72 0 0 0-.29-.74Zm-2.89.28v-.12l-.18-.15h-.05v.14a1.18 1.18 0 0 0 .19.11l.04.02Zm-.02-6.9a.67.67 0 1 0 .67.67.67.67 0 0 0-.67-.67Zm0 1.13a.46.46 0 0 1-.45-.45.48.48 0 0 1 .31-.44v.06a.34.34 0 0 0-.09.24.37.37 0 0 0 .34.34.36.36 0 0 0 .24-.09s.07 0 0 0a.44.44 0 0 1-.36.33Zm-2.42-1.13a.67.67 0 1 0 .67.67.67.67 0 0 0-.67-.67Zm0 1.13a.46.46 0 0 1-.45-.45.48.48 0 0 1 .31-.44v.06a.38.38 0 0 0-.08.24.36.36 0 0 0 .33.34.37.37 0 0 0 .25-.09s.07 0 .05 0a.44.44 0 0 1-.42.33Zm18.61-.21a.49.49 0 0 0-.44.71l.39.82a.06.06 0 0 0 .11 0l.39-.82a.49.49 0 0 0-.45-.71Zm-2.01 1.79a.47.47 0 0 0-.24-.43h-.05a.09.09 0 0 0-.14.07 3.17 3.17 0 0 0 0 .44 3.57 3.57 0 0 0 .9 2.45.06.06 0 0 0 .08 0 .07.07 0 0 0 0-.1 4.8 4.8 0 0 1-.56-2.27Zm1.35 5.58zm1.01-.7c0-.08.1-.16.14-.24a.2.2 0 0 0-.07-.27l-.11-.06a.07.07 0 0 0-.09 0 4.48 4.48 0 0 1-.34.65.62.62 0 0 1-.53.29h-.17a.25.25 0 0 0-.24.16v.07a.05.05 0 0 0 0 .08h.16a.21.21 0 0 1 .27-.12.06.06 0 0 0 .06.08h.31a.08.08 0 0 0 .06 0v-.08l.05-.12a.52.52 0 0 1 .21-.25.58.58 0 0 0 .29-.19Zm.21.7zM60 46.82a.06.06 0 0 0-.09 0 4.89 4.89 0 0 1-.37.72.62.62 0 0 1-.53.29h-.18a.25.25 0 0 0-.23.16v.07a.06.06 0 0 0 .06.08h.1a.07.07 0 0 0 .06 0 .22.22 0 0 1 .28-.12s0 .08.06.08h.55a.14.14 0 0 1 .15 0l.11.06h.23V48a.16.16 0 0 0-.16-.12h-.13a.06.06 0 0 1 0-.1l.07-.1c.08-.12.16-.24.23-.36l.09-.15a.21.21 0 0 0-.08-.26Zm.28-6.98a1 1 0 0 1 .19.26.42.42 0 0 0 .26.21 1.26 1.26 0 0 1 .53.26 1.57 1.57 0 0 0-.28-.89.17.17 0 0 0-.14-.08h-.05a.91.91 0 0 0-.58.23l.07.01Zm.34.77a.89.89 0 0 1-.12.38.33.33 0 0 0 0 .29 1.23 1.23 0 0 1 .08.56 1.53 1.53 0 0 0 .58-.63.43.43 0 0 0 0-.25.42.42 0 0 0-.13-.21.93.93 0 0 0-.45-.2Zm-1.47-.88a1 1 0 0 1 .47-.13h.27a.31.31 0 0 0 .21-.07 1.37 1.37 0 0 1 .51-.26 1.32 1.32 0 0 0-.45-.21A.57.57 0 0 0 60 39h-.18a.82.82 0 0 0-.42.22 1.42 1.42 0 0 0-.3.44Zm-1.15-.3a2.05 2.05 0 0 1 .18.51 2.78 2.78 0 0 1 0 .58.64.64 0 0 1 .2 0 .66.66 0 0 1 .21 0 2.78 2.78 0 0 1 0-.58 2.05 2.05 0 0 1 .18-.51 1.59 1.59 0 0 1 .13-.22 1.59 1.59 0 0 0-.45.37.17.17 0 0 1-.12 0 .16.16 0 0 1-.11 0 1.59 1.59 0 0 0-.45-.37c.09.07.14.14.23.22Zm-1.27.13a.31.31 0 0 0 .21.07h.25a1 1 0 0 1 .47.13 1.42 1.42 0 0 0-.3-.44A.82.82 0 0 0 57 39h-.18a.57.57 0 0 0-.18 0 1.32 1.32 0 0 0-.45.21 1.37 1.37 0 0 1 .54.35Zm-.36.56a1 1 0 0 1 .19-.26.91.91 0 0 0-.59-.23.16.16 0 0 0-.14.08 1.57 1.57 0 0 0-.28.89 1.36 1.36 0 0 1 .54-.26.42.42 0 0 0 .28-.22Zm-.08 1.79a1.23 1.23 0 0 1 .08-.56.33.33 0 0 0 0-.29.89.89 0 0 1-.12-.38 1 1 0 0 0-.45.21.34.34 0 0 0-.13.2.39.39 0 0 0 0 .24 1.59 1.59 0 0 0 .59.64Z"/><path class="cls-2" d="M60.31 45.94a4.72 4.72 0 0 1-.87-1.46 4.83 4.83 0 0 1-.32-1.73 2.62 2.62 0 0 1 0-.28.09.09 0 0 1-.08-.08.22.22 0 0 1 .22-.22H60a.28.28 0 0 0 .24-.25 1 1 0 0 0-.07-.47.93.93 0 0 1-.46.12 1 1 0 0 1-.41-.09.7.7 0 0 1-.06.19l-.46 1a.26.26 0 0 1-.24.15.25.25 0 0 1-.23-.15l-.46-1a.7.7 0 0 1-.06-.19 1 1 0 0 1-.41.09.93.93 0 0 1-.46-.12 1 1 0 0 0-.07.47.28.28 0 0 0 .24.25h.74a.22.22 0 0 1 .22.22.09.09 0 0 1-.08.08H56.8a.1.1 0 0 0-.1.09v.25a4.51 4.51 0 0 0 1.44 3.34 4.17 4.17 0 0 0 .94.68.36.36 0 0 1 0-.09.69.69 0 0 0 0-.32.51.51 0 0 0-.15-.28 5.2 5.2 0 0 1-.57-.76s0 0 0-.07a.07.07 0 0 1 0-.06.2.2 0 0 1 .11 0 .22.22 0 0 1 .18.1 4.65 4.65 0 0 0 .76.9 4.16 4.16 0 0 0 .39.32l.36.24.06-.17a.61.61 0 0 0 0-.3.57.57 0 0 0-.13-.27Zm.5.5a5.46 5.46 0 0 1-.26.67 9 9 0 0 0 .94.36.09.09 0 0 0 .06 0l.13-.22.06-.1a.11.11 0 0 0 0-.15 5.53 5.53 0 0 1-.93-.56Z"/><path class="cls-2" d="M63 47a.72.72 0 0 0-.46-.53 4.41 4.41 0 0 1-.65-.33 3.9 3.9 0 0 1-.93-.79 4.17 4.17 0 0 1-.77-1.35.13.13 0 0 1 0-.06h.06a.22.22 0 0 1 .21.14 3.68 3.68 0 0 0 .67 1.13 3.79 3.79 0 0 0 .86.74 4.26 4.26 0 0 0 .75.35v-.2a.79.79 0 0 0-.38-.53 3.17 3.17 0 0 1-.82-.68 3.07 3.07 0 0 1-.68-1.33.07.07 0 0 1 0-.06.21.21 0 0 1 .21.16 2.83 2.83 0 0 0 .58 1.08 3 3 0 0 0 .78.63h.05a10.86 10.86 0 0 0-.42-1.64 3.35 3.35 0 0 0-.46-.88 3 3 0 0 0-.68-.66A.16.16 0 0 0 61 42a.15.15 0 0 0-.11 0 1.78 1.78 0 0 1-.54.3 2.17 2.17 0 0 1-.62.1h-.23a.09.09 0 0 0-.09.09 1.62 1.62 0 0 0 0 .22 4.64 4.64 0 0 0 1.11 3A4.71 4.71 0 0 0 63 47.23a.83.83 0 0 0 0-.23Zm-3.35-.22.05-.12-.18-.15-.05.14a1.18 1.18 0 0 0 .19.11l-.01.02Zm-.01-6.9a.67.67 0 1 0 .67.67.67.67 0 0 0-.67-.67Zm0 1.13a.45.45 0 0 1-.44-.45.45.45 0 0 1 .3-.44v.06a.34.34 0 0 0-.09.24.37.37 0 0 0 .34.34.34.34 0 0 0 .24-.09h.06a.46.46 0 0 1-.43.33Zm-2.43-1.13a.67.67 0 1 0 .67.67.67.67 0 0 0-.67-.67Zm0 1.13a.46.46 0 0 1-.45-.45.48.48 0 0 1 .31-.44v.06a.34.34 0 0 0-.09.24.37.37 0 0 0 .34.34.36.36 0 0 0 .24-.09s.07 0 0 0a.44.44 0 0 1-.36.33ZM50.56 50 38.89 61.68c.35.64.73 1.26 1.14 1.87l.42.57L50.56 54l10.12 10.12.41-.57a19.07 19.07 0 0 0 1.14-1.87Z"/><path class="cls-2" d="M50.56 44 37.18 57.39a20.7 20.7 0 0 0 1 3L50.56 48l12.33 12.34a20.75 20.75 0 0 0 1.06-3Z"/></svg>
